# xmcd
#
# Track frame offsets: 
#        183
#        14295
#        26153
#        38685
#        50225
#        65125
#        78185
#        90153
#        103235
#        116815
#        130213
#        144843
#        159385
#        170975
#        185145
#        200700
#
# Disc length: 2854 seconds
#
# Revision: 0
# Processed by: cddbd v1.5.2PL0 Copyright (c) Steve Scherf et al.
# Submitted via: ExactAudioCopy v0.95b4
#
DISCID=e60b2410
DTITLE=John Lee Hooker - Cold Chills
DYEAR=1900
DGENRE=Blues
TTITLE0=Cold Chills All Over Me
TTITLE1=Rock Me Mama
TTITLE2=It Hurts Me So
TTITLE3=Key To The Highway 
TTITLE4=It's Been A Long Time Baby
TTITLE5=I Tried Hard
TTITLE6=Love Money Can't Buy
TTITLE7=Pleas Take Me Back
TTITLE8=Need Somebody
TTITLE9=Let's Talk It Over
TTITLE10=You Receive Me
TTITLE11=Baby You Ain't No Good
TTITLE12=Baby I'm Gonna Miss You
TTITLE13=Taxi Driver
TTITLE14=I Need Love So Bad
TTITLE15=The Synicator
EXTD=
EXTT0=
EXTT1=
EXTT2=
EXTT3=
EXTT4=
EXTT5=
EXTT6=
EXTT7=
EXTT8=
EXTT9=
EXTT10=
EXTT11=
EXTT12=
EXTT13=
EXTT14=
EXTT15=
PLAYORDER=
